<?xml version="1.0" encoding="UTF-8" standalone="no"?><svg xmlns="http://www.w3.org/2000/svg" xmlns:xlink="http://www.w3.org/1999/xlink" contentStyleType="text/css" height="567.5px" preserveAspectRatio="none" style="width:817px;height:567px;background:#FFFFFF;" version="1.1" viewBox="0 0 817 567" width="817.5px" zoomAndPan="magnify"><defs><filter height="300%" id="f173i8iseqn26z" width="300%" x="-1" y="-1"><feGaussianBlur result="blurOut" stdDeviation="5.0"/><feColorMatrix in="blurOut" result="blurOut2" type="matrix" values="0 0 0 0 0 0 0 0 0 0 0 0 0 0 0 0 0 0 .4 0"/><feOffset dx="10.0" dy="10.0" in="blurOut2" result="blurOut3"/><feBlend in="SourceGraphic" in2="blurOut3" mode="normal"/></filter></defs><g><rect height="65.7422" id="_title" style="stroke:#00000000;stroke-width:2.5;fill:none;" width="335" x="248.75" y="25"/><text fill="#000000" font-family="sans-serif" font-size="35" font-weight="bold" lengthAdjust="spacing" textLength="310" x="261.25" y="69.9878">TCP Handshake</text><line style="stroke:#181818;stroke-width:1.25;stroke-dasharray:5.0,5.0;" x1="330" x2="330" y1="183.9844" y2="481.4844"/><line style="stroke:#181818;stroke-width:1.25;stroke-dasharray:5.0,5.0;" x1="512.5" x2="512.5" y1="183.9844" y2="481.4844"/><rect fill="#E2E2F0" height="75.7422" rx="6.25" ry="6.25" style="stroke:#181818;stroke-width:1.25;" width="142.5" x="260" y="105.7422"/><text fill="#000000" font-family="sans-serif" font-size="35" lengthAdjust="spacing" textLength="107.5" x="277.5" y="155.73">Client</text><rect fill="#E2E2F0" height="75.7422" rx="6.25" ry="6.25" style="stroke:#181818;stroke-width:1.25;" width="142.5" x="260" y="478.9844"/><text fill="#000000" font-family="sans-serif" font-size="35" lengthAdjust="spacing" textLength="107.5" x="277.5" y="528.9722">Client</text><rect fill="#E2E2F0" height="75.7422" rx="6.25" ry="6.25" style="stroke:#181818;stroke-width:1.25;" width="152.5" x="437.5" y="105.7422"/><text fill="#000000" font-family="sans-serif" font-size="35" lengthAdjust="spacing" textLength="117.5" x="455" y="155.73">Server</text><rect fill="#E2E2F0" height="75.7422" rx="6.25" ry="6.25" style="stroke:#181818;stroke-width:1.25;" width="152.5" x="437.5" y="478.9844"/><text fill="#000000" font-family="sans-serif" font-size="35" lengthAdjust="spacing" textLength="117.5" x="455" y="528.9722">Server</text><polygon fill="#181818" points="483.75,261.4844,508.75,271.4844,483.75,281.4844,493.75,271.4844" style="stroke:#181818;stroke-width:2.5;"/><line style="stroke:#181818;stroke-width:2.5;" x1="331.25" x2="498.75" y1="271.4844" y2="271.4844"/><text fill="#000000" font-family="sans-serif" font-size="22.5" font-weight="bold" lengthAdjust="spacing" textLength="17.5" x="348.75" y="261.178">1</text><text fill="#000000" font-family="sans-serif" font-size="22.5" lengthAdjust="spacing" textLength="45" x="376.25" y="261.178">SYN</text><path d="M117.5,221.4844 L117.5,271.4844 L310,271.4844 L310,246.4844 L285,221.4844 L117.5,221.4844 " fill="#FEFFDD" filter="url(#f173i8iseqn26z)" style="stroke:#181818;stroke-width:1.25;"/><path d="M285,221.4844 L285,246.4844 L310,246.4844 L285,221.4844 " fill="#FEFFDD" style="stroke:#181818;stroke-width:1.25;"/><text fill="#000000" font-family="sans-serif" font-size="15" lengthAdjust="spacing" textLength="140" x="132.5" y="247.9077">send SYN (seq=x)</text><path d="M525,221.4844 L525,271.4844 L737.5,271.4844 L737.5,246.4844 L712.5,221.4844 L525,221.4844 " fill="#FEFFDD" filter="url(#f173i8iseqn26z)" style="stroke:#181818;stroke-width:1.25;"/><path d="M712.5,221.4844 L712.5,246.4844 L737.5,246.4844 L712.5,221.4844 " fill="#FEFFDD" style="stroke:#181818;stroke-width:1.25;"/><text fill="#000000" font-family="sans-serif" font-size="15" lengthAdjust="spacing" textLength="160" x="540" y="247.9077">receive SYN(seq=x)</text><polygon fill="#181818" points="358.75,343.9844,333.75,353.9844,358.75,363.9844,348.75,353.9844" style="stroke:#181818;stroke-width:2.5;"/><line style="stroke:#181818;stroke-width:2.5;stroke-dasharray:2.0,2.0;" x1="343.75" x2="511.25" y1="353.9844" y2="353.9844"/><text fill="#000000" font-family="sans-serif" font-size="22.5" font-weight="bold" lengthAdjust="spacing" textLength="15" x="373.75" y="343.678">2</text><text fill="#000000" font-family="sans-serif" font-size="22.5" lengthAdjust="spacing" textLength="97.5" x="398.75" y="343.678">SYN/ACK</text><path d="M12.5,303.9844 L12.5,353.9844 L312.5,353.9844 L312.5,328.9844 L287.5,303.9844 L12.5,303.9844 " fill="#FEFFDD" filter="url(#f173i8iseqn26z)" style="stroke:#181818;stroke-width:1.25;"/><path d="M287.5,303.9844 L287.5,328.9844 L312.5,328.9844 L287.5,303.9844 " fill="#FEFFDD" style="stroke:#181818;stroke-width:1.25;"/><text fill="#000000" font-family="sans-serif" font-size="15" lengthAdjust="spacing" textLength="247.5" x="27.5" y="330.4077">receive SYN (seq=y, ACK=x+1)</text><path d="M525,303.9844 L525,353.9844 L800,353.9844 L800,328.9844 L775,303.9844 L525,303.9844 " fill="#FEFFDD" filter="url(#f173i8iseqn26z)" style="stroke:#181818;stroke-width:1.25;"/><path d="M775,303.9844 L775,328.9844 L800,328.9844 L775,303.9844 " fill="#FEFFDD" style="stroke:#181818;stroke-width:1.25;"/><text fill="#000000" font-family="sans-serif" font-size="15" lengthAdjust="spacing" textLength="222.5" x="540" y="330.4077">send SYN (seq=y, ACK=x+1)</text><polygon fill="#181818" points="483.75,426.4844,508.75,436.4844,483.75,446.4844,493.75,436.4844" style="stroke:#181818;stroke-width:2.5;"/><line style="stroke:#181818;stroke-width:2.5;" x1="331.25" x2="498.75" y1="436.4844" y2="436.4844"/><text fill="#000000" font-family="sans-serif" font-size="22.5" font-weight="bold" lengthAdjust="spacing" textLength="15" x="348.75" y="426.178">3</text><text fill="#000000" font-family="sans-serif" font-size="22.5" lengthAdjust="spacing" textLength="45" x="373.75" y="426.178">ACK</text><path d="M100,386.4844 L100,436.4844 L310,436.4844 L310,411.4844 L285,386.4844 L100,386.4844 " fill="#FEFFDD" filter="url(#f173i8iseqn26z)" style="stroke:#181818;stroke-width:1.25;"/><path d="M285,386.4844 L285,411.4844 L310,411.4844 L285,386.4844 " fill="#FEFFDD" style="stroke:#181818;stroke-width:1.25;"/><text fill="#000000" font-family="sans-serif" font-size="15" lengthAdjust="spacing" textLength="157.5" x="115" y="412.9077">send ACK (ack=y+1)</text><path d="M525,386.4844 L525,436.4844 L760,436.4844 L760,411.4844 L735,386.4844 L525,386.4844 " fill="#FEFFDD" filter="url(#f173i8iseqn26z)" style="stroke:#181818;stroke-width:1.25;"/><path d="M735,386.4844 L735,411.4844 L760,411.4844 L735,386.4844 " fill="#FEFFDD" style="stroke:#181818;stroke-width:1.25;"/><text fill="#000000" font-family="sans-serif" font-size="15" lengthAdjust="spacing" textLength="182.5" x="540" y="412.9077">receive ACK (ack=y+1)</text><!--MD5=[790207d4e1770c2f3387ea835e4944b6]
@startuml
title TCP Handshake
scale 2.5
skinparam NoteFontSize 6
skinparam NoteShadowing true
skinparam ArrowFontSize 9
participant Client
participant Server
autonumber
Client -> Server: SYN
note left: send SYN (seq=x)
note right: receive SYN(seq=x)
Server - -> Client: SYN/ACK
note left: receive SYN (seq=y, ACK=x+1)
note right: send SYN (seq=y, ACK=x+1)
Client -> Server: ACK
note left: send ACK (ack=y+1)
note right: receive ACK (ack=y+1)
@enduml

PlantUML version 1.2022.7beta2(Unknown compile time)
(GPL source distribution)
Java Runtime: Java(TM) SE Runtime Environment
JVM: Java HotSpot(TM) 64-Bit Server VM
Default Encoding: UTF-8
Language: en
Country: US
--></g></svg>